<svg width="340" height="90" viewBox="0 0 340 90" fill="none" xmlns="http://www.w3.org/2000/svg">
    <defs>
      <linearGradient id="nibD" x1="10" y1="70" x2="60" y2="20" gradientUnits="userSpaceOnUse">
        <stop offset="0%" stop-color="#4a90d9"/>
        <stop offset="100%" stop-color="#2d5fa8"/>
      </linearGradient>
      <linearGradient id="sparkD" x1="52" y1="8" x2="92" y2="56" gradientUnits="userSpaceOnUse">
        <stop offset="0%" stop-color="#a8e8ff"/>
        <stop offset="100%" stop-color="#4ab0f0"/>
      </linearGradient>
    </defs>
 
    <g transform="translate(45,45) rotate(-45) translate(-20,-20)">
      <polygon points="20,40 8,16 32,16" fill="url(#nibD)"/>
      <line x1="20" y1="40" x2="20" y2="18" stroke="#0f1117" stroke-width="1" stroke-linecap="round"/>
      <rect x="8" y="0" width="24" height="18" rx="3" fill="url(#nibD)"/>
      <line x1="12" y1="5" x2="28" y2="5" stroke="#5a8fd4" stroke-width="1" stroke-linecap="round"/>
    </g>
 
    <path d="M72 10 L76 30 L92 34 L76 38 L72 58 L68 38 L52 34 L68 30 Z" fill="url(#sparkD)"/>
    <path d="M88 8 L90 16 L98 18 L90 20 L88 28 L86 20 L78 18 L86 16 Z" fill="url(#sparkD)" opacity="0.7"/>
    <path d="M96 30 L97 34 L101 35 L97 36 L96 40 L95 36 L91 35 L95 34 Z" fill="url(#sparkD)" opacity="0.45"/>
 
    <text x="112" y="58" font-family="'Inter','Helvetica Neue',sans-serif" font-size="42" font-weight="700" fill="#e8eaf0" letter-spacing="-1">Brite</text>
  </svg>
